<!-- Generated by IcoMoon.io -->
<svg version="1.1" xmlns="http://www.w3.org/2000/svg" width="32" height="32" viewBox="0 0 32 32">
<path d="M30.667 32h-20c-0.8 0-1.333-0.533-1.333-1.333s0.533-1.333 1.333-1.333h18.667v-26.667h-26.667v28c0 0.8-0.533 1.333-1.333 1.333s-1.333-0.533-1.333-1.333v-29.333c0-0.8 0.533-1.333 1.333-1.333h29.333c0.8 0 1.333 0.533 1.333 1.333v29.333c0 0.8-0.533 1.333-1.333 1.333z"></path>
<path d="M8 9.333h12c0.8 0 1.333 0.533 1.333 1.333v0c0 0.8-0.533 1.333-1.333 1.333h-12c-0.8 0-1.333-0.533-1.333-1.333v0c0-0.8 0.533-1.333 1.333-1.333z"></path>
<path d="M8 14.667h6.8c0.8 0 1.333 0.533 1.333 1.333v0c0 0.8-0.533 1.333-1.333 1.333h-6.8c-0.8 0-1.333-0.533-1.333-1.333v0c0-0.8 0.533-1.333 1.333-1.333z"></path>
</svg>
