<!-- Generated by IcoMoon.io -->
<svg version="1.1" xmlns="http://www.w3.org/2000/svg" width="32" height="32" viewBox="0 0 32 32">
<path d="M16.638 16.362c-4.213 0-7.66-3.447-7.66-7.66s3.447-7.66 7.66-7.66c4.213 0 7.66 3.447 7.66 7.66s-3.447 7.66-7.66 7.66zM16.638 3.596c-2.809 0-5.106 2.298-5.106 5.106s2.298 5.106 5.106 5.106 5.106-2.298 5.106-5.106-2.298-5.106-5.106-5.106z"></path>
<path d="M26.213 31.043h-20.426c-0.766 0-1.277-0.511-1.277-1.277v-6.128c0-2.936 2.809-5.362 6.383-5.362h10.213c3.574 0 6.383 2.426 6.383 5.362v6.128c0 0.766-0.511 1.277-1.277 1.277zM7.064 28.489h17.872v-4.851c0-1.532-1.787-2.809-3.83-2.809h-10.213c-2.043 0-3.83 1.277-3.83 2.809v4.851z"></path>
</svg>
