<!-- Generated by IcoMoon.io -->
<svg version="1.1" xmlns="http://www.w3.org/2000/svg" width="32" height="32" viewBox="0 0 32 32">
<path d="M32 6.154v22.154c0 0.738-0.492 1.231-1.231 1.231h-29.538c-0.369 0-0.615-0.123-0.862-0.369s-0.369-0.492-0.369-0.862v-22.154c0-0.738 0.492-1.231 1.231-1.231h6.154v2.462h-4.923v19.692h27.077v-19.692h-4.923v-2.462h6.154c0.738 0 1.231 0.492 1.231 1.231z"></path>
<path d="M7.385 4.923h17.231v2.462h-17.231v-2.462z"></path>
<path d="M9.846 2.462v7.385c0 0.738-0.492 1.231-1.231 1.231s-1.231-0.492-1.231-1.231v-7.385c0-0.738 0.492-1.231 1.231-1.231s1.231 0.492 1.231 1.231z"></path>
<path d="M7.385 9.846h2.462c0.738 0 1.231 0.492 1.231 1.231v0c0 0.738-0.492 1.231-1.231 1.231h-2.462c-0.738 0-1.231-0.492-1.231-1.231v0c0-0.738 0.492-1.231 1.231-1.231z"></path>
<path d="M22.154 9.846h2.462c0.738 0 1.231 0.492 1.231 1.231v0c0 0.738-0.492 1.231-1.231 1.231h-2.462c-0.738 0-1.231-0.492-1.231-1.231v0c0-0.738 0.492-1.231 1.231-1.231z"></path>
<path d="M24.615 2.462v7.385c0 0.738-0.492 1.231-1.231 1.231s-1.231-0.492-1.231-1.231v-7.385c0-0.738 0.492-1.231 1.231-1.231s1.231 0.492 1.231 1.231z"></path>
</svg>
