<!-- Generated by IcoMoon.io -->
<svg version="1.1" xmlns="http://www.w3.org/2000/svg" width="32" height="32" viewBox="0 0 32 32">
<path d="M21.046 19.754h-15.877c-0.615 0-1.108-0.369-1.354-0.985l-3.815-10.338v-0.246c0-0.738 0.615-1.477 1.477-1.477h18.585c0.738 0 1.231 0.492 1.231 1.231s-0.492 1.231-1.231 1.231h-17.108l2.954 8.123h14.4l4.923-15.015c0.123-0.615 0.738-0.985 1.354-0.985 0 0 0 0 0 0h4.185c0.738 0 1.231 0.492 1.231 1.231s-0.492 1.231-1.231 1.231h-3.446l-4.923 15.015c-0.123 0.615-0.738 0.985-1.354 0.985zM26.585 3.754c0 0 0 0 0 0v0z"></path>
<path d="M6.769 30.708c-2.338 0-4.185-1.846-4.185-4.185s1.846-4.185 4.185-4.185 4.185 1.846 4.185 4.185-1.846 4.185-4.185 4.185zM6.769 24.554c-1.108 0-1.969 0.862-1.969 1.969s0.862 1.969 1.969 1.969 1.969-0.862 1.969-1.969-0.862-1.969-1.969-1.969z"></path>
<path d="M20.308 30.708c-2.338 0-4.185-1.846-4.185-4.185s1.846-4.185 4.185-4.185 4.185 1.846 4.185 4.185-1.846 4.185-4.185 4.185zM20.308 24.554c-1.108 0-1.969 0.862-1.969 1.969s0.862 1.969 1.969 1.969 1.969-0.862 1.969-1.969-0.862-1.969-1.969-1.969z"></path>
</svg>
