<!-- Generated by IcoMoon.io -->
<svg version="1.1" xmlns="http://www.w3.org/2000/svg" width="32" height="32" viewBox="0 0 32 32">
<path d="M30 31.587h-19.091c-0.764 0-1.273-0.509-1.273-1.273s0.509-1.273 1.273-1.273h17.818v-13.109l-12.727-6.618-12.727 6.618v14.382c0 0.764-0.509 1.273-1.273 1.273s-1.273-0.509-1.273-1.273v-15.145c0-0.509 0.255-0.891 0.636-1.145l14-7.382c0.382-0.255 0.764-0.255 1.145 0l14 7.382c0.382 0.255 0.636 0.636 0.636 1.145v15.145c0.127 0.636-0.382 1.273-1.145 1.273z"></path>
<path d="M30 10.078c-0.255 0-0.382 0-0.636-0.127l-13.364-7.127-13.364 7c-0.636 0.382-1.4 0.127-1.655-0.509-0.382-0.636-0.127-1.4 0.509-1.655l14-7.382c0.382-0.255 0.764-0.255 1.145 0l14 7.382c0.636 0.382 0.891 1.145 0.509 1.655-0.255 0.509-0.636 0.764-1.145 0.764z"></path>
</svg>
