<!-- Generated by IcoMoon.io -->
<svg version="1.1" xmlns="http://www.w3.org/2000/svg" width="32" height="32" viewBox="0 0 32 32">
<path d="M0 0h5.818v5.818h-5.818v-5.818z"></path>
<path d="M0 8.727h5.818v5.818h-5.818v-5.818z"></path>
<path d="M0 17.455h5.818v5.818h-5.818v-5.818z"></path>
<path d="M0 26.182h5.818v5.818h-5.818v-5.818z"></path>
<path d="M8.727 0h5.818v5.818h-5.818v-5.818z"></path>
<path d="M8.727 8.727h5.818v5.818h-5.818v-5.818z"></path>
<path d="M8.727 17.455h5.818v5.818h-5.818v-5.818z"></path>
<path d="M8.727 26.182h5.818v5.818h-5.818v-5.818z"></path>
<path d="M17.455 0h5.818v5.818h-5.818v-5.818z"></path>
<path d="M17.455 8.727h5.818v5.818h-5.818v-5.818z"></path>
<path d="M17.455 17.455h5.818v5.818h-5.818v-5.818z"></path>
<path d="M17.455 26.182h5.818v5.818h-5.818v-5.818z"></path>
<path d="M26.182 0h5.818v5.818h-5.818v-5.818z"></path>
<path d="M26.182 8.727h5.818v5.818h-5.818v-5.818z"></path>
<path d="M26.182 17.455h5.818v5.818h-5.818v-5.818z"></path>
<path d="M26.182 26.182h5.818v5.818h-5.818v-5.818z"></path>
</svg>
