<!-- Generated by IcoMoon.io -->
<svg version="1.1" xmlns="http://www.w3.org/2000/svg" width="32" height="32" viewBox="0 0 32 32">
<path d="M10.151 10.151c0 1.045-0.847 1.892-1.892 1.892s-1.892-0.847-1.892-1.892c0-1.045 0.847-1.892 1.892-1.892s1.892 0.847 1.892 1.892z"></path>
<path d="M23.914 23.742l-5.161-7.398-4.817 6.538-3.269-2.925-2.581 3.785-1.72-1.204 3.785-6.021 3.441 3.097 5.161-6.882 6.882 9.806z"></path>
<path d="M21.161 0h-21.161v32h32v-21.161l-10.839-10.839zM29.419 29.591h-26.839v-27.011h17.548l9.29 9.462v17.548z"></path>
</svg>
