<!-- Generated by IcoMoon.io -->
<svg version="1.1" xmlns="http://www.w3.org/2000/svg" width="32" height="32" viewBox="0 0 32 32">
<path d="M16 32c-8.833 0-16-7.167-16-16s7.167-16 16-16 16 7.167 16 16c0 8.833-7.167 16-16 16zM16 3.333c-7 0-12.667 5.667-12.667 12.667s5.667 12.667 12.667 12.667c7 0 12.667-5.667 12.667-12.667s-5.667-12.667-12.667-12.667z"></path>
<path d="M14.333 13.333h3.333v10h-3.333v-10z"></path>
<path d="M17.667 10.333c0 0.92-0.746 1.667-1.667 1.667s-1.667-0.746-1.667-1.667c0-0.92 0.746-1.667 1.667-1.667s1.667 0.746 1.667 1.667z"></path>
</svg>
