<!-- Generated by IcoMoon.io -->
<svg version="1.1" xmlns="http://www.w3.org/2000/svg" width="32" height="32" viewBox="0 0 32 32">
<path d="M19.654 7.558c-0.378 0-0.756 0-1.008 0 0.756 0 1.386 0 2.142 0-0.378 0-0.756 0-1.134 0zM19.654 7.558c-0.378 0-0.756 0-1.008 0 0.756 0 1.386 0 2.142 0-0.378 0-0.756 0-1.134 0z"></path>
<path d="M19.654 0.376c-3.906 0-7.812 1.134-7.812 3.654v3.15c-3.78 0-7.434 1.26-7.434 3.654v17.388c0 2.52 3.906 3.654 7.812 3.654s7.812-1.134 7.812-3.654v-3.15c3.78 0 7.434-1.26 7.434-3.654v-17.514c0-2.394-3.906-3.528-7.812-3.528zM19.654 2.896c2.898 0 4.662 0.756 5.166 1.134 0 0-0.126 0.126-0.126 0.126-0.126 0-0.126 0.126-0.252 0.126s-0.252 0.126-0.378 0.126c-0.126 0-0.252 0.126-0.378 0.126s-0.126 0-0.252 0.126c-0.126 0-0.252 0-0.252 0.126-0.126 0-0.252 0.126-0.504 0.126s-0.378 0.126-0.63 0.126c-0.126 0-0.252 0-0.378 0s-0.126 0-0.252 0-0.378 0-0.504 0c-0.126 0-0.252 0-0.504 0s-0.504 0-0.63 0-0.504 0-0.63 0c-0.126 0-0.378 0-0.504 0-0.252 0-0.378 0-0.504 0s-0.252 0-0.252 0-0.252 0-0.378 0-0.378-0.126-0.63-0.126c-0.126 0-0.378-0.126-0.504-0.126s-0.252 0-0.252-0.126c-0.126 0-0.126 0-0.252-0.126-0.126 0-0.252-0.126-0.378-0.126s-0.252-0.126-0.378-0.126c-0.126 0-0.126-0.126-0.252-0.126 0 0-0.126-0.126-0.126-0.126 0.378-0.504 2.142-1.134 4.914-1.134zM14.488 9.7c1.638 0.252 2.646 0.63 3.024 1.008 0 0 0 0 0 0s-0.126 0.126-0.126 0.126-0.252 0.126-0.504 0.252c-0.504 0.252-1.26 0.504-2.394 0.63v-2.016zM11.968 9.574v2.142c-0.126 0-0.252 0-0.252 0-0.126 0-0.378 0-0.504 0s-0.378 0-0.504 0c-0.126 0-0.252 0-0.252 0-0.126 0-0.252 0-0.378 0-0.882-0.126-1.512-0.378-2.016-0.504-0.252-0.126-0.504-0.252-0.63-0.252 0 0-0.126 0-0.126-0.126 0 0 0 0 0 0 0.252-0.504 1.89-1.134 4.662-1.26zM17.512 27.97c-0.378 0.378-2.142 1.26-5.292 1.26s-4.914-0.756-5.292-1.26v-14.49c0.126 0.126 0.378 0.126 0.63 0.252 0.126 0 0.378 0.126 0.63 0.126 0 0 0.126 0 0.126 0 0.378 0.126 0.756 0.126 1.134 0.252 0.252 0 0.504 0.126 0.63 0.126 0.63 0 1.26 0.126 1.764 0.126v6.93c0 2.016 2.646 3.15 5.67 3.528v3.15zM17.512 22.3c-1.764-0.252-2.898-0.756-3.15-1.008v-6.93c0.252 0 0.504 0 0.756-0.126 0.378 0 0.882-0.126 1.26-0.252s0.882-0.252 1.26-0.378v8.694zM24.946 21.166c-0.252 0.378-2.016 1.134-4.914 1.26v-11.718c0-2.016-2.52-3.15-5.67-3.528v-0.504c0.378 0.126 0.756 0.252 1.26 0.378 0.378 0.126 0.756 0.126 1.26 0.252 0.252 0 0.504 0.126 0.63 0.126 0.252 0 0.504 0 0.882 0.126 0.126 0 0.126 0 0.252 0 0.378 0 0.756 0 1.008 0 0.378 0 0.756 0 1.134 0 0.126 0 0.126 0 0.252 0 0.252 0 0.504 0 0.882-0.126 0.252 0 0.504 0 0.63-0.126 0.378 0 0.882-0.126 1.26-0.252s0.882-0.252 1.26-0.378v14.49z"></path>
<path d="M10.078 14.236c0.63 0.126 1.26 0.126 1.764 0.126v0c-0.504 0-1.134-0.126-1.764-0.126zM16.756 11.086c0.252-0.126 0.378-0.126 0.504-0.252-0.126 0-0.252 0.126-0.504 0.252z"></path>
</svg>
