<!-- Generated by IcoMoon.io -->
<svg version="1.1" xmlns="http://www.w3.org/2000/svg" width="32" height="32" viewBox="0 0 32 32">
<path d="M30.769 29.538h-22.154c-0.738 0-1.231-0.492-1.231-1.231s0.492-1.231 1.231-1.231h20.923v-19.692h-27.077v20.923c0 0.738-0.492 1.231-1.231 1.231s-1.231-0.492-1.231-1.231v-22.154c0-0.738 0.492-1.231 1.231-1.231h29.538c0.738 0 1.231 0.492 1.231 1.231v22.154c0 0.738-0.492 1.231-1.231 1.231z"></path>
<path d="M8.615 1.231v0c0.738 0 1.231 0.492 1.231 1.231v7.385c0 0.738-0.492 1.231-1.231 1.231v0c-0.738 0-1.231-0.492-1.231-1.231v-7.385c0-0.738 0.492-1.231 1.231-1.231z"></path>
<path d="M7.385 9.846h2.462c0.738 0 1.231 0.492 1.231 1.231v0c0 0.738-0.492 1.231-1.231 1.231h-2.462c-0.738 0-1.231-0.492-1.231-1.231v0c0-0.738 0.492-1.231 1.231-1.231z"></path>
<path d="M22.154 9.846h2.462c0.738 0 1.231 0.492 1.231 1.231v0c0 0.738-0.492 1.231-1.231 1.231h-2.462c-0.738 0-1.231-0.492-1.231-1.231v0c0-0.738 0.492-1.231 1.231-1.231z"></path>
<path d="M23.385 1.231v0c0.738 0 1.231 0.492 1.231 1.231v7.385c0 0.738-0.492 1.231-1.231 1.231v0c-0.738 0-1.231-0.492-1.231-1.231v-7.385c0-0.738 0.492-1.231 1.231-1.231z"></path>
</svg>
