<!-- Generated by IcoMoon.io -->
<svg version="1.1" xmlns="http://www.w3.org/2000/svg" width="32" height="32" viewBox="0 0 32 32">
<path d="M30.713 31.939c-0.123 0-0.245 0-0.245 0l-9.563-2.452-9.563 2.452c-0.245 0-0.368 0-0.613 0l-9.808-2.452c-0.123 0-0.245 0-0.245-0.123-0.123-0.123-0.245-0.245-0.368-0.368s-0.245-0.245-0.245-0.49c0-0.123 0-0.245 0-0.245v-26.973c0-0.368 0.123-0.736 0.49-0.981 0.245-0.245 0.613-0.245 0.981-0.245l9.563 2.452 9.441-2.452c0.123 0 0.245 0 0.368 0v0 0c0.123 0 0.245 0 0.368 0l9.808 2.452c0.49 0.123 0.981 0.613 0.981 1.226v26.973c0 0.368-0.123 0.736-0.49 0.981-0.368 0.123-0.613 0.245-0.858 0.245zM2.513 27.28l8.582 2.207 9.441-2.329c0.123 0 0.245 0 0.368 0v0 0c0.123 0 0.245 0 0.368 0l8.215 2.084v-24.521l-8.582-2.207-9.441 2.452c-0.123 0-0.245 0-0.368 0s-0.245 0-0.368 0l-8.215-2.084v24.398z"></path>
<path d="M11.096 7.418v0c0.736 0 1.226 0.49 1.226 1.226v2.452c0 0.736-0.49 1.226-1.226 1.226v0c-0.736 0-1.226-0.49-1.226-1.226v-2.452c0-0.736 0.49-1.226 1.226-1.226z"></path>
<path d="M11.096 14.774v0c0.736 0 1.226 0.49 1.226 1.226v2.452c0 0.736-0.49 1.226-1.226 1.226v0c-0.736 0-1.226-0.49-1.226-1.226v-2.452c0-0.736 0.49-1.226 1.226-1.226z"></path>
<path d="M11.096 22.13v0c0.736 0 1.226 0.49 1.226 1.226v2.452c0 0.736-0.49 1.226-1.226 1.226v0c-0.736 0-1.226-0.49-1.226-1.226v-2.452c0-0.736 0.49-1.226 1.226-1.226z"></path>
<path d="M20.904 4.966v0c0.736 0 1.226 0.49 1.226 1.226v2.452c0 0.736-0.49 1.226-1.226 1.226v0c-0.736 0-1.226-0.49-1.226-1.226v-2.452c0-0.736 0.49-1.226 1.226-1.226z"></path>
<path d="M20.904 12.322v0c0.736 0 1.226 0.49 1.226 1.226v2.452c0 0.736-0.49 1.226-1.226 1.226v0c-0.736 0-1.226-0.49-1.226-1.226v-2.452c0-0.736 0.49-1.226 1.226-1.226z"></path>
<path d="M20.904 19.678v0c0.736 0 1.226 0.49 1.226 1.226v2.452c0 0.736-0.49 1.226-1.226 1.226v0c-0.736 0-1.226-0.49-1.226-1.226v-2.452c0-0.736 0.49-1.226 1.226-1.226z"></path>
</svg>
