<!-- Generated by IcoMoon.io -->
<svg version="1.1" xmlns="http://www.w3.org/2000/svg" width="32" height="32" viewBox="0 0 32 32">
<path d="M2.673 31.788c-0.121 0-0.121 0-0.242 0-0.606-0.121-1.090-0.727-0.969-1.454l2.423-13.327c0.121-0.606 0.606-0.969 1.212-0.969h7.269c0.727 0 1.212 0.485 1.212 1.212s-0.485 1.212-1.212 1.212h-6.179l-2.302 12.358c-0.121 0.606-0.606 0.969-1.212 0.969zM29.327 31.788h-18.173c-0.727 0-1.212-0.485-1.212-1.212s0.485-1.212 1.212-1.212h16.719l-1.938-10.904h-6.3c-0.727 0-1.212-0.485-1.212-1.212s0.485-1.212 1.212-1.212h7.269c0.606 0 1.090 0.363 1.212 0.969l2.423 13.327c0.121 0.363 0 0.727-0.242 0.969-0.242 0.363-0.606 0.485-0.969 0.485z"></path>
<path d="M15.758 26.942l-8.238-18.052 8.238-8.602 8.723 8.602-8.723 18.052zM10.427 9.374l5.331 11.873 5.694-11.873-5.815-5.694-5.21 5.694z"></path>
<path d="M13.577 10.344l2.302-2.787 2.544 2.787-2.544 3.271-2.302-3.271z"></path>
</svg>
