<!-- Generated by IcoMoon.io -->
<svg version="1.1" xmlns="http://www.w3.org/2000/svg" width="32" height="32" viewBox="0 0 32 32">
<path d="M9.067 32c-0.267 0-0.533-0.133-0.8-0.267-0.533-0.4-0.667-1.333-0.267-1.867l5.067-6.267c0.267-0.267 0.667-0.533 1.067-0.533h15.2v-17.867l-2.133-2.533h-24.533v20.4h4.667c0.8 0 1.333 0.533 1.333 1.333s-0.533 1.333-1.333 1.333h-6c-0.8 0-1.333-0.533-1.333-1.333v-23.067c0-0.8 0.533-1.333 1.333-1.333h26.533c0.4 0 0.8 0.133 1.067 0.533l2.8 3.467c0.133 0.267 0.267 0.533 0.267 0.8v19.6c0 0.8-0.533 1.333-1.333 1.333h-16l-4.533 5.733c-0.4 0.4-0.667 0.533-1.067 0.533z"></path>
<path d="M13.333 12h5.333c0.8 0 1.333 0.533 1.333 1.333v0c0 0.8-0.533 1.333-1.333 1.333h-5.333c-0.8 0-1.333-0.533-1.333-1.333v0c0-0.8 0.533-1.333 1.333-1.333z"></path>
<path d="M18.667 8v0c0.8 0 1.333 0.533 1.333 1.333v8c0 0.8-0.533 1.333-1.333 1.333v0c-0.8 0-1.333-0.533-1.333-1.333v-8c0-0.8 0.533-1.333 1.333-1.333z"></path>
<path d="M13.333 8v0c0.8 0 1.333 0.533 1.333 1.333v8c0 0.8-0.533 1.333-1.333 1.333v0c-0.8 0-1.333-0.533-1.333-1.333v-8c0-0.8 0.533-1.333 1.333-1.333z"></path>
</svg>
