<!-- Generated by IcoMoon.io -->
<svg version="1.1" xmlns="http://www.w3.org/2000/svg" width="32" height="32" viewBox="0 0 32 32">
<path d="M24.167 31.841h-21c-0.7 0-1.167-0.467-1.167-1.167v-24.5c0-0.7 0.467-1.167 1.167-1.167h21c0.7 0 1.167 0.467 1.167 1.167v24.5c0 0.7-0.467 1.167-1.167 1.167zM4.333 29.508h18.667v-22.167h-18.667v22.167zM12.85 23.674c-0.233 0-0.467-0.117-0.7-0.233-0.467-0.35-0.583-1.167-0.117-1.633l5.95-7.233c0.35-0.467 1.167-0.583 1.633-0.117 0.467 0.35 0.583 1.167 0.117 1.633l-5.95 7.233c-0.233 0.233-0.583 0.35-0.933 0.35zM10.167 20.524c-0.35 0-0.7-0.117-0.933-0.35l-2.333-2.683c-0.467-0.467-0.35-1.167 0.117-1.633s1.167-0.35 1.633 0.117l2.333 2.683c0.467 0.467 0.35 1.167-0.117 1.633-0.233 0.117-0.467 0.233-0.7 0.233z"></path>
<path d="M28.833 27.174c-0.7 0-1.167-0.467-1.167-1.167v-23.333h-17.5v2.217c0 0.7-0.467 1.167-1.167 1.167s-1.167-0.467-1.167-1.167v-3.383c0-0.7 0.467-1.167 1.167-1.167h19.833c0.7 0 1.167 0.467 1.167 1.167v24.5c0 0.7-0.467 1.167-1.167 1.167z"></path>
</svg>
