<!-- Generated by IcoMoon.io -->
<svg version="1.1" xmlns="http://www.w3.org/2000/svg" width="32" height="32" viewBox="0 0 32 32">
<path d="M16 16.164c-4.331 0-7.875-3.544-7.875-7.875s3.544-7.875 7.875-7.875 7.875 3.544 7.875 7.875-3.544 7.875-7.875 7.875zM16 3.039c-2.887 0-5.25 2.362-5.25 5.25s2.363 5.25 5.25 5.25c2.887 0 5.25-2.363 5.25-5.25s-2.363-5.25-5.25-5.25z"></path>
<path d="M27.813 31.914h-16.012c-0.787 0-1.313-0.525-1.313-1.313s0.525-1.313 1.313-1.313h14.7v-5.775c0-1.837-2.1-3.413-4.594-3.413h-11.813c-2.494 0-4.594 1.575-4.594 3.413v7.087c0 0.788-0.525 1.313-1.313 1.313s-1.313-0.525-1.313-1.313v-7.087c0-3.281 3.281-6.038 7.219-6.038h11.813c3.938 0 7.219 2.756 7.219 6.038v7.087c0 0.788-0.525 1.313-1.313 1.313z"></path>
</svg>
