<!-- Generated by IcoMoon.io -->
<svg version="1.1" xmlns="http://www.w3.org/2000/svg" width="32" height="32" viewBox="0 0 32 32">
<path d="M19.887-0.065h-15.935v32h24.097v-23.838l-8.162-8.162zM19.887 2.656l5.312 5.441h-5.441l0.13-5.441zM26.105 30.121h-20.211v-28.243h12.049v8.162h8.162v20.081z"></path>
<path d="M16.619 13.474c0.659 0 1.221 0.096 1.684 0.288s0.841 0.446 1.131 0.761c0.291 0.315 0.503 0.675 0.636 1.079 0.132 0.404 0.2 0.823 0.2 1.256 0 0.423-0.067 0.84-0.2 1.249-0.134 0.409-0.345 0.771-0.636 1.087-0.29 0.315-0.668 0.569-1.131 0.76-0.463 0.192-1.025 0.289-1.684 0.289h-2.439v3.784h-2.32v-10.553h4.76zM15.983 18.44c0.266 0 0.522-0.019 0.769-0.059s0.463-0.115 0.651-0.229c0.186-0.113 0.337-0.274 0.451-0.481 0.113-0.207 0.17-0.478 0.17-0.813s-0.056-0.606-0.17-0.813c-0.114-0.207-0.265-0.367-0.451-0.481-0.188-0.113-0.404-0.189-0.651-0.229s-0.503-0.059-0.769-0.059h-1.803v3.163h1.803z"></path>
</svg>
