<!-- Generated by IcoMoon.io -->
<svg version="1.1" xmlns="http://www.w3.org/2000/svg" width="32" height="32" viewBox="0 0 32 32">
<path d="M15.736 31.816c-1.582 0-3.295-0.527-4.481-1.582-0.527-0.527-0.659-1.318-0.132-1.845s1.318-0.659 1.845-0.132c0.791 0.659 1.845 1.054 2.768 1.054 1.845 0 3.427-1.054 3.954-2.636h-15.552c-0.791 0-1.318-0.527-1.318-1.318v-4.877c0-1.45 0.659-2.9 1.713-3.954l3.031-2.768v-6.063c0-4.086 4.613-7.381 8.435-7.381s8.435 3.295 8.435 7.381v6.063l3.031 2.768c1.054 1.054 1.713 2.372 1.713 3.954v4.745c0 0.791-0.527 1.318-1.318 1.318h-5.404c-0.659 3.031-3.427 5.272-6.722 5.272 0 0 0 0 0 0zM5.456 23.908h21.088v-3.559c0-0.791-0.264-1.45-0.923-1.977l-3.427-3.163c-0.264-0.264-0.395-0.659-0.395-0.923v-6.59c0-2.504-3.295-4.745-5.799-4.745s-5.799 2.372-5.799 4.745v6.59c0 0.395-0.132 0.791-0.395 0.923l-3.427 3.163c-0.527 0.527-0.923 1.186-0.923 1.977v3.559z"></path>
</svg>
