<!-- Generated by IcoMoon.io -->
<svg version="1.1" xmlns="http://www.w3.org/2000/svg" width="32" height="32" viewBox="0 0 32 32">
<path d="M19.887-0.065h-15.935v32h24.097v-23.838l-8.162-8.162zM19.887 2.656l5.312 5.441h-5.441l0.13-5.441zM26.105 30.121h-20.211v-28.243h12.049v8.162h8.162v20.081z"></path>
<path d="M11.213 16.243c0.342 0 0.633 0.050 0.873 0.149s0.436 0.231 0.586 0.395c0.151 0.163 0.261 0.35 0.33 0.56s0.104 0.427 0.104 0.652c0 0.22-0.035 0.436-0.104 0.648s-0.179 0.4-0.33 0.564c-0.15 0.163-0.346 0.295-0.586 0.394s-0.531 0.15-0.873 0.15h-1.265v1.962h-1.203v-5.473h2.468zM10.883 18.819c0.138 0 0.271-0.010 0.399-0.031s0.24-0.060 0.338-0.119c0.097-0.059 0.175-0.142 0.234-0.249s0.088-0.248 0.088-0.421-0.029-0.314-0.088-0.422c-0.059-0.107-0.137-0.19-0.234-0.249s-0.21-0.098-0.338-0.119c-0.128-0.020-0.261-0.031-0.399-0.031h-0.935v1.64h0.935z"></path>
<path d="M16.219 16.243c0.352 0 0.681 0.056 0.985 0.168s0.567 0.281 0.789 0.506c0.223 0.225 0.396 0.506 0.521 0.843s0.188 0.733 0.188 1.188c0 0.399-0.051 0.767-0.153 1.104s-0.257 0.628-0.463 0.874c-0.207 0.246-0.465 0.439-0.774 0.579s-0.674 0.211-1.092 0.211h-2.361v-5.473h2.361zM16.134 20.704c0.174 0 0.342-0.028 0.506-0.084s0.309-0.15 0.437-0.279c0.128-0.131 0.23-0.301 0.306-0.51s0.115-0.465 0.115-0.766c0-0.276-0.027-0.525-0.080-0.747s-0.142-0.413-0.265-0.571c-0.123-0.158-0.285-0.28-0.487-0.364s-0.451-0.126-0.747-0.126h-0.858v3.449h1.073z"></path>
<path d="M23.385 16.243v1.012h-2.644v1.265h2.292v0.935h-2.292v2.261h-1.203v-5.473h3.848z"></path>
</svg>
