<!-- Generated by IcoMoon.io -->
<svg version="1.1" xmlns="http://www.w3.org/2000/svg" width="32" height="32" viewBox="0 0 32 32">
<path d="M13.229 26.717c-3.594 0-6.922-1.331-9.452-3.861-5.059-5.325-5.059-13.712 0.133-18.904v0c2.529-2.529 5.857-3.861 9.319-3.861 3.594 0 6.922 1.331 9.452 3.861s3.861 5.857 3.861 9.452-1.331 6.922-3.861 9.452c-2.529 2.396-5.857 3.861-9.452 3.861zM5.774 5.816c-4.127 4.127-4.127 10.916 0 15.043 1.997 1.997 4.659 3.062 7.588 3.062 2.796 0 5.458-1.065 7.588-3.062 1.997-1.997 3.062-4.659 3.062-7.588s-1.065-5.458-3.062-7.588c-1.997-1.997-4.659-3.062-7.588-3.062-2.929 0.133-5.591 1.198-7.588 3.195v0z"></path>
<path d="M24.146 24.054v0c0.532-0.532 1.331-0.532 1.864 0l5.591 5.591c0.533 0.532 0.533 1.331 0 1.864v0c-0.532 0.532-1.331 0.532-1.864 0l-5.591-5.591c-0.532-0.532-0.532-1.331 0-1.864z"></path>
</svg>
