<!-- Generated by IcoMoon.io -->
<svg version="1.1" xmlns="http://www.w3.org/2000/svg" width="32" height="32" viewBox="0 0 32 32">
<path fill="#39576f" d="M13.2 26.6c-3.6 0-6.9-1.3-9.5-3.9-5-5.2-5-13.6 0.2-18.8v0c2.5-2.5 5.8-3.9 9.3-3.9 3.6 0 6.9 1.3 9.5 3.9s3.9 5.9 3.9 9.5-1.3 6.9-3.9 9.5c-2.6 2.3-5.9 3.7-9.5 3.7zM5.7 5.7c-4.1 4.1-4.1 10.9 0 15 2 2 4.7 3.1 7.6 3.1 2.8 0 5.5-1.1 7.6-3.1 2-2 3.1-4.7 3.1-7.6s-1.1-5.5-3.1-7.6c-2-2-4.7-3.1-7.6-3.1-2.9 0.3-5.6 1.4-7.6 3.3 0 0 0 0 0 0z"></path>
<path fill="#39576f" d="M24.1 24v0c0.5-0.5 1.3-0.5 1.9 0l5.6 5.6c0.5 0.5 0.5 1.3 0 1.9v0c-0.5 0.5-1.3 0.5-1.9 0l-5.6-5.6c-0.5-0.6-0.5-1.4 0-1.9z"></path>
</svg>
