<!-- Generated by IcoMoon.io -->
<svg version="1.1" xmlns="http://www.w3.org/2000/svg" width="32" height="32" viewBox="0 0 32 32">
<path d="M1.455 5.818h13.091c0.803 0 1.455 0.651 1.455 1.455s-0.651 1.455-1.455 1.455h-13.091c-0.803 0-1.455-0.651-1.455-1.455s0.651-1.455 1.455-1.455z"></path>
<path d="M23.273 5.818h7.273c0.803 0 1.455 0.651 1.455 1.455s-0.651 1.455-1.455 1.455h-7.273c-0.803 0-1.455-0.651-1.455-1.455s0.651-1.455 1.455-1.455z"></path>
<path d="M14.545 23.273h16c0.803 0 1.455 0.651 1.455 1.455s-0.651 1.455-1.455 1.455h-16c-0.803 0-1.455-0.651-1.455-1.455s0.651-1.455 1.455-1.455z"></path>
<path d="M1.455 23.273h4.364c0.803 0 1.455 0.651 1.455 1.455s-0.651 1.455-1.455 1.455h-4.364c-0.803 0-1.455-0.651-1.455-1.455s0.651-1.455 1.455-1.455z"></path>
</svg>
