<!-- Generated by IcoMoon.io -->
<svg version="1.1" xmlns="http://www.w3.org/2000/svg" width="32" height="32" viewBox="0 0 32 32">
<path d="M27.864 26.495c-1.597 0.228-2.966-1.141-3.194-2.738l-1.369-15.057-15.057-1.369c-1.597-0.228-3.194-1.825-2.738-3.65 0-1.825 1.597-2.966 3.422-2.966l17.567 1.597c1.597 0.228 2.738 1.369 2.966 2.966l1.597 17.567c0.228 2.053-0.913 3.65-3.194 3.65 0.228 0.228 0.228 0.228 0 0z"></path>
<path d="M2.312 29.689v0c1.369 1.369 3.194 1.369 4.563 0l11.407-11.407c1.369-1.369 1.369-3.194 0-4.563v0c-1.369-1.369-3.194-1.369-4.563 0l-11.407 11.407c-1.369 1.369-1.369 3.194 0 4.563z"></path>
</svg>
