<!-- Generated by IcoMoon.io -->
<svg version="1.1" xmlns="http://www.w3.org/2000/svg" width="32" height="32" viewBox="0 0 32 32">
<path d="M14.048 25.369c-0.347 0-0.867-0.174-1.215-0.347-0.694-0.694-0.867-1.735-0.174-2.429l14.748-17.177c0.694-0.694 1.735-0.867 2.429-0.173s0.867 1.735 0.174 2.429l-14.748 17.177c-0.174 0.347-0.694 0.52-1.215 0.52zM9.19 20.164c-0.521 0-0.867-0.174-1.215-0.52l-6.246-6.767c-0.694-0.694-0.52-1.735 0.173-2.429s1.735-0.521 2.429 0.174l6.246 6.766c0.694 0.694 0.521 1.735-0.174 2.429-0.521 0.174-0.867 0.347-1.215 0.347z"></path>
</svg>
