<!-- Generated by IcoMoon.io -->
<svg version="1.1" xmlns="http://www.w3.org/2000/svg" width="32" height="32" viewBox="0 0 32 32">
<path d="M16 0c1.473 0 2.667 1.194 2.667 2.667v26.667c0 1.473-1.194 2.667-2.667 2.667s-2.667-1.194-2.667-2.667v-26.667c0-1.473 1.194-2.667 2.667-2.667z"></path>
<path d="M16 13.333h13.333c1.473 0 2.667 1.194 2.667 2.667s-1.194 2.667-2.667 2.667h-13.333c-1.473 0-2.667-1.194-2.667-2.667s1.194-2.667 2.667-2.667z"></path>
<path d="M2.667 13.333h5.333c1.473 0 2.667 1.194 2.667 2.667s-1.194 2.667-2.667 2.667h-5.333c-1.473 0-2.667-1.194-2.667-2.667s1.194-2.667 2.667-2.667z"></path>
</svg>
