<!-- Generated by IcoMoon.io -->
<svg version="1.1" xmlns="http://www.w3.org/2000/svg" width="32" height="32" viewBox="0 0 32 32">
<path d="M22.498 25.747c-0.282 0-0.706-0.141-0.848-0.282-0.565-0.565-0.706-1.413-0.141-1.978l6.074-7.346-6.074-7.346c-0.565-0.565-0.424-1.554 0.141-1.978 0.565-0.565 1.554-0.424 1.978 0.141l6.922 8.193c0.424 0.565 0.424 1.271 0 1.836l-6.922 8.193c-0.282 0.424-0.706 0.565-1.13 0.565z"></path>
<path d="M3.287 14.587h16.951c0.848 0 1.413 0.565 1.413 1.413v0c0 0.848-0.565 1.413-1.413 1.413h-16.951c-0.848 0-1.413-0.565-1.413-1.413v0c0-0.848 0.565-1.413 1.413-1.413z"></path>
</svg>
