<!-- Generated by IcoMoon.io -->
<svg version="1.1" xmlns="http://www.w3.org/2000/svg" width="32" height="32" viewBox="0 0 32 32">
<path d="M13.759 26.374c-0.231 0-0.579 0-0.81 0-1.62-0.116-2.893-0.463-4.051-0.926-6.481-2.662-9.606-10.069-6.944-16.55 1.273-3.125 3.703-5.555 6.828-6.944s6.597-1.389 9.722-0.116c6.481 2.662 9.606 10.069 6.944 16.55-0.231 0.579-0.926 0.926-1.505 0.579-0.579-0.231-0.926-0.926-0.579-1.505 2.199-5.324-0.347-11.342-5.787-13.541-2.546-1.042-5.324-1.042-7.986 0-2.546 1.042-4.514 3.125-5.555 5.671-2.199 5.324 0.347 11.342 5.787 13.541 0.926 0.347 1.967 0.579 3.241 0.694 2.893 0.231 5.902-0.926 8.101-3.009 0.463-0.463 1.157-0.463 1.62 0s0.463 1.157 0 1.62c-2.546 2.662-5.787 3.935-9.027 3.935z"></path>
<path d="M21.629 21.514v0c0.463-0.463 1.157-0.463 1.62 0l7.407 7.407c0.463 0.463 0.463 1.157 0 1.62v0c-0.463 0.463-1.157 0.463-1.62 0l-7.407-7.407c-0.463-0.463-0.463-1.157 0-1.62z"></path>
</svg>
