<!-- Generated by IcoMoon.io -->
<svg version="1.1" xmlns="http://www.w3.org/2000/svg" width="32" height="32" viewBox="0 0 32 32">
<path d="M29.483 30.708h-13.728c-0.735 0-1.226-0.49-1.226-1.226s0.49-1.226 1.226-1.226h12.502v-25.739h-20.837c-0.735 0-1.226-0.49-1.226-1.226s0.49-1.226 1.226-1.226h22.062c0.735 0 1.226 0.49 1.226 1.226v28.191c0 0.735-0.613 1.226-1.226 1.226z"></path>
<path d="M17.226 9.504h7.354c0.613 0 1.226 0.49 1.226 1.226v0c0 0.613-0.49 1.226-1.226 1.226h-7.354c-0.613 0-1.226-0.49-1.226-1.226v0c0-0.735 0.49-1.226 1.226-1.226z"></path>
<path d="M17.226 14.284h6.128c0.613 0 1.226 0.49 1.226 1.226v0c0 0.613-0.49 1.226-1.226 1.226h-6.128c-0.613 0-1.226-0.49-1.226-1.226v0c0-0.735 0.49-1.226 1.226-1.226z"></path>
<path d="M12.323 27.276c-0.735 0-1.226-0.49-1.226-1.226v-20.101c0-0.735 0.49-1.226 1.226-1.226s1.226 0.49 1.226 1.226v19.979c0 0.735-0.49 1.348-1.226 1.348zM2.518 27.276c-0.735 0-1.226-0.49-1.226-1.226v-20.101c0-0.735 0.49-1.226 1.226-1.226s1.226 0.49 1.226 1.226v19.979c0 0.735-0.49 1.348-1.226 1.348z"></path>
<path d="M7.42 31.566c-3.432 0-6.128-2.697-6.128-5.883s2.696-6.006 6.128-6.006 6.128 2.697 6.128 5.883-2.697 6.006-6.128 6.006zM7.42 22.128c-2.084 0-3.677 1.593-3.677 3.432s1.593 3.432 3.677 3.432 3.677-1.593 3.677-3.432-1.593-3.432-3.677-3.432z"></path>
<path d="M8.646 25.805c0 0.677-0.549 1.226-1.226 1.226s-1.226-0.549-1.226-1.226c0-0.677 0.549-1.226 1.226-1.226s1.226 0.549 1.226 1.226z"></path>
<path d="M12.323 7.175c-0.735 0-1.226-0.49-1.226-1.226 0-1.839-1.593-3.432-3.677-3.432s-3.677 1.593-3.677 3.432c0 0.735-0.49 1.226-1.226 1.226s-1.226-0.49-1.226-1.226c0-3.187 2.697-5.883 6.128-5.883s6.128 2.696 6.128 5.883c0 0.735-0.49 1.226-1.226 1.226z"></path>
</svg>
