<!-- Generated by IcoMoon.io -->
<svg version="1.1" xmlns="http://www.w3.org/2000/svg" width="32" height="32" viewBox="0 0 32 32">
<path d="M17.289 14.711l14.177 14.177c0.712 0.712 0.712 1.866 0 2.578s-1.866 0.712-2.578 0l-14.177-14.177c-0.712-0.712-0.712-1.866 0-2.578s1.866-0.712 2.578 0z"></path>
<path d="M3.112 0.534l9.022 9.022c0.712 0.712 0.712 1.866 0 2.578s-1.866 0.712-2.578 0l-9.022-9.022c-0.712-0.712-0.712-1.866 0-2.578s1.866-0.712 2.578 0z"></path>
<path d="M31.466 0.534c0.712 0.712 0.712 1.866 0 2.578l-28.355 28.355c-0.712 0.712-1.866 0.712-2.578 0s-0.712-1.866 0-2.578l28.355-28.355c0.712-0.712 1.866-0.712 2.578 0z"></path>
</svg>
