<!-- Generated by IcoMoon.io -->
<svg version="1.1" xmlns="http://www.w3.org/2000/svg" width="32" height="32" viewBox="0 0 32 32">
<path d="M17.269 31.945c-0.276 0-0.552-0.221-0.552-0.497 0-0.331 0.221-0.552 0.497-0.607 7.669-0.607 13.683-7.117 13.683-14.841s-6.069-14.29-13.793-14.841c-0.331 0-0.552-0.276-0.497-0.607 0-0.331 0.276-0.552 0.607-0.497 8.276 0.607 14.786 7.614 14.786 15.945 0 8.276-6.455 15.283-14.731 15.945 0 0 0 0 0 0zM14.4 31.89c0 0-0.055 0-0.055 0-8.166-0.828-14.345-7.669-14.345-15.89 0-8.386 6.566-15.393 14.897-15.945 0.331 0 0.552 0.221 0.607 0.497 0 0.331-0.221 0.552-0.497 0.607-7.835 0.497-13.903 7.062-13.903 14.841 0 7.669 5.738 14.014 13.352 14.841 0.276 0.055 0.497 0.276 0.497 0.607-0.055 0.276-0.276 0.441-0.552 0.441z"></path>
<path d="M12.69 23.172c-0.166 0-0.331-0.11-0.441-0.221-0.166-0.276-0.11-0.607 0.166-0.772l9.214-6.179-8.386-5.572v9.434c0 0.331-0.221 0.552-0.552 0.552s-0.552-0.221-0.552-0.552v-10.483c0-0.221 0.11-0.386 0.276-0.497s0.386-0.11 0.552 0l9.931 6.621c0.166 0.11 0.221 0.276 0.221 0.441s-0.11 0.331-0.221 0.441l-9.931 6.621c-0.055 0.11-0.166 0.166-0.276 0.166z"></path>
</svg>
