<!-- Generated by IcoMoon.io -->
<svg version="1.1" xmlns="http://www.w3.org/2000/svg" width="32" height="32" viewBox="0 0 32 32">
<path fill="#0073b5" d="M7.55 10.591v19.189h-6.406v-19.19h6.406zM7.973 4.654c0 1.842-1.392 3.317-3.626 3.317h-0.041c-2.151 0-3.542-1.475-3.542-3.317 0-1.881 1.434-3.314 3.625-3.314 2.192 0 3.543 1.434 3.585 3.314zM30.66 18.777v11.003h-6.408v-10.267c0-2.577-0.927-4.338-3.246-4.338-1.771 0-2.826 1.186-3.289 2.332-0.171 0.411-0.212 0.982-0.212 1.556v10.717h-6.406s0.085-17.388 0-19.189h6.408v2.719c0.851-1.307 2.375-3.17 5.777-3.17 4.215 0 7.377 2.743 7.377 8.637z"></path>
</svg>
