<!-- Generated by IcoMoon.io -->
<svg version="1.1" xmlns="http://www.w3.org/2000/svg" width="32" height="32" viewBox="0 0 32 32">
<path d="M16.807 30.655h-14.924c-1.076 0-1.882-0.807-1.882-1.882v-25.546c0-1.076 0.807-1.882 1.882-1.882h14.924c1.076 0 1.882 0.807 1.882 1.882v25.546c0 1.076-0.941 1.882-1.882 1.882zM1.882 2.151c-0.538 0-1.076 0.403-1.076 1.076v25.546c0 0.538 0.403 1.076 1.076 1.076h14.924c0.538 0 1.076-0.403 1.076-1.076v-25.546c0-0.538-0.403-1.076-1.076-1.076h-14.924z"></path>
<path d="M0.403 5.513h17.882v0.807h-17.882v-0.807z"></path>
<path d="M0.403 25.681h17.882v0.807h-17.882v-0.807z"></path>
<path d="M9.277 29.445c-0.672 0-1.21-0.538-1.21-1.21s0.538-1.21 1.21-1.21 1.21 0.538 1.21 1.21-0.538 1.21-1.21 1.21zM9.277 27.429c-0.403 0-0.807 0.403-0.807 0.807s0.403 0.807 0.807 0.807 0.807-0.403 0.807-0.807-0.403-0.807-0.807-0.807z"></path>
<path d="M7.126 3.765h4.303v0.538h-4.303v-0.538z"></path>
<path d="M30.118 30.655h-10.353c-0.269 0-0.403-0.134-0.403-0.403s0.134-0.403 0.403-0.403h10.353c0.538 0 1.076-0.403 1.076-1.076v-14.924c0-0.538-0.403-1.076-1.076-1.076h-10.353c-0.269 0-0.403-0.134-0.403-0.403s0.134-0.403 0.403-0.403h10.353c1.076 0 1.882 0.807 1.882 1.882v14.924c0 1.076-0.807 1.882-1.882 1.882z"></path>
<path d="M27.025 12.37h0.807v17.882h-0.807v-17.882z"></path>
<path d="M29.176 19.092h0.538v4.303h-0.538v-4.303z"></path>
<path d="M27.025 9.681c-0.269-3.227-2.958-5.782-6.185-5.782v-0.538c3.496 0 6.454 2.824 6.723 6.319h-0.538z"></path>
<path d="M25.546 8.471l0.269-0.269 1.479 1.21 1.076-1.479 0.403 0.269-1.479 1.882z"></path>
</svg>
