<?xml version="1.0" encoding="utf-8"?>
<!-- Generator: Adobe Illustrator 25.2.1, SVG Export Plug-In . SVG Version: 6.00 Build 0)  -->
<svg version="1.1" id="Layer_1" xmlns="http://www.w3.org/2000/svg" xmlns:xlink="http://www.w3.org/1999/xlink" x="0px" y="0px"
	 viewBox="0 0 48 48" style="enable-background:new 0 0 48 48;" xml:space="preserve">
<style type="text/css">
	.st0{fill:#FFFFFF;}
</style>
<rect x="13.24" y="17.85" class="st0" width="4.52" height="2.15"/>
<rect x="13.26" y="22.83" class="st0" width="4.52" height="2.15"/>
<rect x="13.26" y="27.81" class="st0" width="4.52" height="2.15"/>
<rect x="13.26" y="32.8" class="st0" width="4.52" height="2.15"/>
<path class="st0" d="M39.29,36.98H39v-23.8h-7.67V8.99H13.86v4.18H9v23.81H8.5c-0.66,0-1.2,0.54-1.2,1.2v0.8h33.18v-0.8
	C40.49,37.52,39.95,36.98,39.29,36.98z M37.01,36.98H10.99V15.16h4.86v-4.18h13.49v2.2h-9.28v1.98h16.95
	C37.01,15.16,37.01,36.98,37.01,36.98z"/>
<path class="st0" d="M31.1,27.73c1.15-1.04,1.88-2.55,1.88-4.23c0-3.12-2.48-5.65-5.53-5.65s-5.53,2.54-5.53,5.65
	c0,1.69,0.73,3.2,1.88,4.23c-2.54,1.36-4.28,4.08-4.28,7.21h0.9h0.47c0.33,0,0.61-0.26,0.64-0.6l0,0c0.25-2.63,2.11-4.78,4.54-5.37
	c0.44-0.11,0.9-0.17,1.37-0.17s0.93,0.06,1.37,0.17c2.43,0.6,4.28,2.73,4.54,5.35v0.02c0.03,0.34,0.31,0.6,0.64,0.6h0.47h0.9
	C35.38,31.81,33.64,29.09,31.1,27.73z M27.45,27.17c-0.44,0-0.86-0.09-1.24-0.25c-1.34-0.52-2.3-1.85-2.3-3.42
	c0-2.02,1.59-3.67,3.54-3.67s3.54,1.65,3.54,3.67c0,1.57-0.96,2.9-2.3,3.42C28.31,27.07,27.89,27.17,27.45,27.17z"/>
</svg>
