<svg id="Lager_1" data-name="Lager 1" xmlns="http://www.w3.org/2000/svg" viewBox="0 0 72 72"><defs><style>.cls-1{fill:#fff;}</style></defs><path class="cls-1" d="M50.05,45.53H50a7.47,7.47,0,1,0-7,0h0a12.11,12.11,0,0,0-7,5.69,12.05,12.05,0,0,0-7-5.69h0a7.48,7.48,0,1,0-7,0h0A12,12,0,0,0,13.5,57h1.36a1.8,1.8,0,0,0,1.77-1.53A9,9,0,0,1,34.49,57h3a9,9,0,0,1,17.85-1.53A1.8,1.8,0,0,0,57.14,57H58.5A12,12,0,0,0,50.05,45.53ZM25.49,34.48A4.5,4.5,0,1,1,21,39,4.51,4.51,0,0,1,25.49,34.48Zm21,0A4.5,4.5,0,1,1,42,39,4.51,4.51,0,0,1,46.48,34.48Z"/><path class="cls-1" d="M36,33a7.47,7.47,0,1,0-7.47-7.47A7.48,7.48,0,0,0,36,33Zm0-12a4.5,4.5,0,1,1-4.5,4.5A4.5,4.5,0,0,1,36,21Z"/></svg>