<svg id="Lager_1" data-name="Lager 1" xmlns="http://www.w3.org/2000/svg" viewBox="0 0 72 72"><defs><style>.cls-1{fill:#fff;}</style></defs><path class="cls-1" d="M54,36H51A15,15,0,0,1,36,51a14.85,14.85,0,0,1-3.06-.32L38.57,45l-2.12-2.12L26.9,52.46,36.45,62l.84-.85a1.79,1.79,0,0,0,0-2.55l-5-5A18.22,18.22,0,0,0,36,54,18,18,0,0,0,54,36Z"/><path class="cls-1" d="M39.05,21.34l-4.37,4.37a1.8,1.8,0,0,0,0,2.54l.85.85,9.54-9.55L35.53,10l-2.12,2.12,6.28,6.28A17.71,17.71,0,0,0,36,18,18,18,0,0,0,18,36h3A14.94,14.94,0,0,1,39.05,21.34Z"/></svg>