<?xml version="1.0" encoding="utf-8"?>
<!-- Generator: Adobe Illustrator 25.1.0, SVG Export Plug-In . SVG Version: 6.00 Build 0)  -->
<svg version="1.1" id="Lager_1" xmlns="http://www.w3.org/2000/svg" xmlns:xlink="http://www.w3.org/1999/xlink" x="0px" y="0px"
	 viewBox="0 0 48 48" style="enable-background:new 0 0 48 48;" xml:space="preserve">
<style type="text/css">
	.st0{fill:#1E3856;}
</style>
<g>
	<path class="st0" d="M18,30H8.2C7.5,30,7,30.5,7,31.2V32h11V30z"/>
	<path class="st0" d="M10,35.2V36h11v-2h-9.8C10.5,34,10,34.5,10,35.2z"/>
	<path class="st0" d="M35.9,21L35.9,21c-0.5-4.5-4.3-8-8.9-8c-3.4,0-6.6,2-8.1,5.1C14.7,17.5,11,20.8,11,25c0,1.1,0.2,2.1,0.7,3H14
		c-0.6-0.8-1-1.9-1-3c0-3.2,3-5.7,6.3-4.8l0.9,0.2l0.3-0.8c1-2.7,3.6-4.6,6.5-4.6c3.6,0,6.6,2.8,7,6.2c-2.3,0.7-4,2.8-4,5.3h2
		c0-1.9,1.6-3.5,3.5-3.5s3.5,1.6,3.5,3.5S37.4,30,35.5,30H20v2h15.5c3,0,5.5-2.5,5.5-5.5C41,23.6,38.7,21.2,35.9,21z"/>
</g>
</svg>
