<?xml version="1.0" encoding="utf-8"?>
<!-- Generator: Adobe Illustrator 25.1.0, SVG Export Plug-In . SVG Version: 6.00 Build 0)  -->
<svg version="1.1" id="Lager_1" xmlns="http://www.w3.org/2000/svg" xmlns:xlink="http://www.w3.org/1999/xlink" x="0px" y="0px"
	 viewBox="0 0 24 24" style="enable-background:new 0 0 24 24;" xml:space="preserve">
<style type="text/css">
	.st0{fill:#FFFFFF;}
</style>
<g>
	<path class="st0" d="M9,15.2H4.1c-0.3,0-0.6,0.3-0.6,0.6v0.4H9V15.2z"/>
	<path class="st0" d="M5,17.8v0.4h5.5v-1H5.6C5.3,17.2,5,17.4,5,17.8z"/>
	<path class="st0" d="M18,10.7L18,10.7c-0.2-2.3-2.1-4-4.5-4c-1.7,0-3.3,1-4,2.5c-2.1-0.3-4,1.4-4,3.5c0,0.5,0.1,1,0.3,1.5H7
		c-0.3-0.4-0.5-0.9-0.5-1.5c0-1.6,1.5-2.8,3.1-2.4l0.4,0.1l0.2-0.4c0.5-1.4,1.8-2.3,3.3-2.3c1.8,0,3.3,1.4,3.5,3.1
		c-1.1,0.3-2,1.4-2,2.6h1c0-1,0.8-1.7,1.7-1.7c1,0,1.7,0.8,1.7,1.7s-0.8,1.7-1.7,1.7H10v1h7.8c1.5,0,2.7-1.2,2.7-2.7
		C20.5,12,19.4,10.8,18,10.7z"/>
</g>
</svg>
