<svg id="Lager_1" data-name="Lager 1" xmlns="http://www.w3.org/2000/svg" viewBox="0 0 48 48"><defs><style>.cls-1{fill:#1e3856;}</style></defs><path class="cls-1" d="M36,24H34A10,10,0,0,1,24,34a10.7,10.7,0,0,1-2-.21L25.71,30,24.3,28.61,17.93,35l6.37,6.37.56-.57a1.19,1.19,0,0,0,0-1.69l-3.34-3.34A12,12,0,0,0,36,24Z"/><path class="cls-1" d="M26,14.22l-2.91,2.92a1.19,1.19,0,0,0,0,1.69l.56.57L30.05,13,23.68,6.67,22.27,8.08l4.19,4.19A12,12,0,0,0,12,24h2A10,10,0,0,1,24,14,10.7,10.7,0,0,1,26,14.22Z"/></svg>