<svg id="Lager_1" data-name="Lager 1" xmlns="http://www.w3.org/2000/svg" viewBox="0 0 36 36"><defs><style>.cls-1{fill:#fff;}</style></defs><path class="cls-1" d="M24,15.82h0a6,6,0,0,0-.78-2.37L18,6l-5.18,7.49a5.94,5.94,0,0,0-.78,2.4h0c-3.62,1.22-6,3.52-6,6.22a4.59,4.59,0,0,0,.2,1.32l1.48-.45a2.93,2.93,0,0,1-.14-.87c0-1.87,1.83-3.56,4.55-4.58h0a5.81,5.81,0,0,0,.43,1.4c-1.76.75-2.84,1.88-2.84,3.18,0,2.38,3.56,4.17,8.29,4.17,4.3,0,7.77-1.54,8.24-3.65l-1.56-.35c-.26,1.16-3,2.4-6.68,2.4-4.14,0-6.69-1.5-6.69-2.57,0-.58.75-1.28,2.1-1.81h0A5.87,5.87,0,0,0,18,22.44a6,6,0,0,0,5.91-5h0c2.76,1,4.61,2.72,4.61,4.61,0,3-4.8,5.6-10.48,5.6a16.28,16.28,0,0,1-7.16-1.54.87.87,0,0,0-1.16.33L9.36,27a16.76,16.76,0,0,0,8.69,2.18c6.75,0,12-3.14,12-7.15C30.08,19.35,27.65,17,24,15.82Zm-12,.86h0Zm.9,2.92h0Zm9-.91a4.49,4.49,0,0,1-7.8-4.44L18,8.59l3.92,5.66A4.41,4.41,0,0,1,21.9,18.69Zm2.1-2h0Z"/></svg>