<svg id="Lager_1" data-name="Lager 1" xmlns="http://www.w3.org/2000/svg" viewBox="0 0 36 36"><defs><style>.cls-1{fill:#fff;}</style></defs><path class="cls-1" d="M29.87,19.11c-.06-1.85-2.5-3.3-5.62-3.3h-.19a5.63,5.63,0,0,0-9.4-5.5L6.8,18.18v0h0a5.62,5.62,0,0,0,7.38,8.45,4.77,4.77,0,0,0,.6-.51l3.85-3.86v1.41c0,1.89,2.48,3.37,5.63,3.37s5.63-1.48,5.63-3.37V19.11Zm-5.62-1.8c2.36,0,4.13,1,4.13,1.88s-1.77,1.87-4.13,1.87a6.09,6.09,0,0,1-3.47-.93l1.84-1.84a5.33,5.33,0,0,0,.74-.92A8.48,8.48,0,0,1,24.25,17.31Zm-8.53-5.93a4.15,4.15,0,0,1,5.84,0,4.31,4.31,0,0,1,.68.94l-3.56,3.56,1.06,1.06,3-3a4.12,4.12,0,0,1-1.18,3.28l-5.18,5.18c0-.08,0-.15,0-.23a5.57,5.57,0,0,0-1.65-4,5.69,5.69,0,0,0-.86-.71l3.26-3.26-1.06-1.06-3.64,3.64a5.58,5.58,0,0,0-1.9-.24ZM7.86,25.08a4.11,4.11,0,1,1,5.82,0,3.72,3.72,0,0,1-.37.3A4.11,4.11,0,0,1,7.86,25.08Zm16.39.48c-2.36,0-4.13-1-4.13-1.87V21.48a7,7,0,0,0,3,1V24.8h1.5V22.54a7.45,7.45,0,0,0,3.76-1.05v2.2C28.38,24.57,26.61,25.56,24.25,25.56Z"/><path class="cls-1" d="M8.9,20.32a2.63,2.63,0,0,0,1.87,4.49A2.59,2.59,0,0,0,12.63,24a2.63,2.63,0,0,0,0-3.72A2.69,2.69,0,0,0,8.9,20.32ZM11.57,23A1.15,1.15,0,0,1,10,23,1.14,1.14,0,0,1,10.77,21a1.12,1.12,0,0,1,.8.34A1.13,1.13,0,0,1,11.57,23Z"/><path class="cls-1" d="M22.38,19.17c0,.47.84.85,1.87.85s1.87-.38,1.87-.85-.83-.84-1.87-.84S22.38,18.7,22.38,19.17Z"/></svg>