<svg id="Lager_1" data-name="Lager 1" xmlns="http://www.w3.org/2000/svg" viewBox="0 0 24 24"><defs><style>.cls-1{fill:#fff;}</style></defs><circle class="cls-1" cx="5.99" cy="17.48" r="0.74"/><path class="cls-1" d="M19.11,18.23h1.63V8.74h-11v6.51h-1V8.74H5.92a.6.6,0,0,0-.43.18L2.74,11.75v3.52a.58.58,0,0,0-.49.58v2.39H3.89a2.25,2.25,0,0,0,.7,1H3.34a.6.6,0,0,0-.6.6v.4h17.5v-.4a.6.6,0,0,0-.6-.6H18.4A2.24,2.24,0,0,0,19.11,18.23Zm.64-1h-.52a2.23,2.23,0,0,0-.36-1h.88Zm-4.62-1a2.35,2.35,0,0,0-.36,1H8.22a2.35,2.35,0,0,0-.36-1ZM3.74,12.15,5.26,10.6v2.14H3.74Zm0,5.1H3.23v-1h.89A2.23,2.23,0,0,0,3.76,17.25Zm0-2v-1.5H6.25v-4H7.75v5.5ZM6,18.83a1.35,1.35,0,1,1,1.35-1.35A1.34,1.34,0,0,1,6,18.83Zm1.4.4a2.24,2.24,0,0,0,.71-1h6.79a2.24,2.24,0,0,0,.71,1Zm9.61-.4a1.35,1.35,0,1,1,1.35-1.35A1.35,1.35,0,0,1,17,18.83Zm-6.25-3.59V9.74h9v5.5Z"/><circle class="cls-1" cx="17" cy="17.48" r="0.74"/></svg>