<svg id="Lager_1" data-name="Lager 1" xmlns="http://www.w3.org/2000/svg" viewBox="0 0 48 48"><defs><style>.cls-1{fill:#fff;}</style></defs><path class="cls-1" d="M40,25.4C39.91,22.93,36.65,21,32.5,21h-.26a7.5,7.5,0,0,0-12.53-7.34L9.24,24.16l0,0h0a7.5,7.5,0,0,0,9.85,11.26,7,7,0,0,0,.79-.67L25,29.63v1.88C25,34,28.29,36,32.5,36S40,34,40,31.51V25.4ZM32.5,23c3.15,0,5.5,1.31,5.5,2.49S35.65,28,32.5,28a8.19,8.19,0,0,1-4.63-1.23l2.46-2.46a7.49,7.49,0,0,0,1-1.22A11.37,11.37,0,0,1,32.5,23ZM21.13,15.1a5.5,5.5,0,0,1,7.78,0,5.14,5.14,0,0,1,.91,1.24L25.07,21.1l1.41,1.41,4-4a5.5,5.5,0,0,1-1.57,4.38L22,29.79c0-.1,0-.2,0-.3a7.43,7.43,0,0,0-2.2-5.3,7.83,7.83,0,0,0-1.15-1L23,18.89,21.6,17.47l-4.85,4.86A7.49,7.49,0,0,0,14.22,22ZM10.65,33.36a5.5,5.5,0,0,1,0-7.77,5.5,5.5,0,0,1,7.77,7.79,3.89,3.89,0,0,1-.5.41A5.49,5.49,0,0,1,10.65,33.36ZM32.5,34c-3.15,0-5.5-1.32-5.5-2.49V28.57a9.55,9.55,0,0,0,4,1.33V33h2V30a10.19,10.19,0,0,0,5-1.4v2.93C38,32.68,35.65,34,32.5,34Z"/><path class="cls-1" d="M12,27a3.51,3.51,0,1,0,5,0A3.59,3.59,0,0,0,12,27Zm3.56,3.55A1.51,1.51,0,1,1,14.52,28a1.54,1.54,0,0,1,1.07.44A1.51,1.51,0,0,1,15.59,30.56Z"/><path class="cls-1" d="M30,25.48c0,.63,1.12,1.13,2.5,1.13S35,26.11,35,25.48s-1.11-1.13-2.49-1.13S30,24.86,30,25.48Z"/></svg>