<?xml version="1.0" encoding="utf-8"?>
<!-- Generator: Adobe Illustrator 25.2.1, SVG Export Plug-In . SVG Version: 6.00 Build 0)  -->
<svg version="1.1" id="Lager_1" xmlns="http://www.w3.org/2000/svg" xmlns:xlink="http://www.w3.org/1999/xlink" x="0px" y="0px"
	 viewBox="0 0 24 24" style="enable-background:new 0 0 24 24;" xml:space="preserve">
<style type="text/css">
	.st0{fill:#FFFFFF;}
</style>
<g>
	<path class="st0" d="M19.03,11.55h-1.46V7.09l-1-2.59H7.46l-1,2.59v4.47H5.03L4.5,15.52v3.97h2.95v-1h2.57v1h3.95v-1h2.58v1h2.94
		v-3.97L19.03,11.55z M17.57,12.55h0.58l0.12,0.99h-0.7V12.55z M17.57,14.53h0.81l0.12,0.99h-0.93V14.53z M8.14,5.49h7.75l0.43,1.11
		h-8.6L8.14,5.49z M7.45,7.59h9.12v1.98H7.45V7.59z M7.45,12.55v-0.99v-0.99h9.12v0.99v0.99l0,0H7.45L7.45,12.55z M7.45,14.53v-0.99
		h9.12v0.99v0.99H7.45V14.53z M5.9,12.55h0.56v0.99H5.77L5.9,12.55z M5.63,14.53h0.82v0.99H5.5L5.63,14.53z M18.5,18.5h-0.96l0,0v-1
		h-0.99h-2.58h-0.99v0.99l0,0h-1.97l0,0V17.5h-0.99H7.45H6.46v0.99l0,0H5.49v-1.98H18.5V18.5z"/>
</g>
</svg>
