<svg id="Lager_1" data-name="Lager 1" xmlns="http://www.w3.org/2000/svg" viewBox="0 0 36 36"><defs><style>.cls-1{fill:#fff;}</style></defs><path class="cls-1" d="M25,23h0a3.73,3.73,0,1,0-3.5,0h0A6,6,0,0,0,18,25.86,6,6,0,0,0,14.52,23h0A3.74,3.74,0,1,0,11,23h0a6,6,0,0,0-4.23,5.73h.68A.91.91,0,0,0,8.32,28a4.49,4.49,0,0,1,8.92.77h1.52A4.5,4.5,0,0,1,27.69,28a.9.9,0,0,0,.88.77h.68A6,6,0,0,0,25,23ZM12.75,17.49a2.25,2.25,0,1,1-2.25,2.25A2.24,2.24,0,0,1,12.75,17.49Zm10.49,0A2.25,2.25,0,1,1,21,19.74,2.25,2.25,0,0,1,23.24,17.49Z"/><path class="cls-1" d="M18,16.73A3.73,3.73,0,1,0,14.26,13,3.74,3.74,0,0,0,18,16.73Zm0-6A2.25,2.25,0,1,1,15.75,13,2.25,2.25,0,0,1,18,10.75Z"/></svg>