<svg id="Lager_1" data-name="Lager 1" xmlns="http://www.w3.org/2000/svg" viewBox="0 0 48 48"><defs><style>.cls-1{fill:#1e3856;}</style></defs><path class="cls-1" d="M32,21.24h0a8,8,0,0,0-1-3.17L24,8.08l-6.92,10a8,8,0,0,0-1,3.2h0C11.22,22.9,8,26,8,29.56a5.94,5.94,0,0,0,.27,1.77l2-.6a4,4,0,0,1-.18-1.17c0-2.49,2.43-4.74,6.06-6.1h0a8.52,8.52,0,0,0,.57,1.86c-2.34,1-3.78,2.5-3.78,4.25,0,3.16,4.75,5.55,11.06,5.55,5.73,0,10.35-2,11-4.86l-2.08-.47c-.35,1.54-4,3.2-8.9,3.2-5.53,0-8.93-2-8.93-3.42,0-.78,1-1.72,2.8-2.41h0A7.89,7.89,0,0,0,24,30.06a8,8,0,0,0,7.87-6.64h0C35.56,24.78,38,27.05,38,29.56c0,4.05-6.4,7.47-14,7.47A21.6,21.6,0,0,1,14.5,35a1.19,1.19,0,0,0-1.55.44l-.48.78A22.29,22.29,0,0,0,24.05,39.1c9,0,16-4.19,16-9.54C40.09,25.94,36.84,22.85,32,21.24ZM16,22.37v0Zm1.2,3.9h0Zm12-1.21a6,6,0,0,1-10.41-5.92L24,11.6l5.23,7.54A5.93,5.93,0,0,1,29.19,25.06ZM32,22.35v0Z"/></svg>