<svg id="Lager_1" data-name="Lager 1" xmlns="http://www.w3.org/2000/svg" viewBox="0 0 48 48"><defs><style>.cls-1{fill:#1e3856;}</style></defs><path class="cls-1" d="M40,12H30.58A11.83,11.83,0,0,0,24,14a12.16,12.16,0,0,0-6.67-2H8V36h9.33A12,12,0,0,1,24,38a11.8,11.8,0,0,1,6.58-2H40ZM17.34,34H10.06V14h7.26a10,10,0,0,1,5.54,1.66l.13.08V35.19A14,14,0,0,0,17.34,34Zm13.22,0A13.84,13.84,0,0,0,25,35.16V15.74l.09-.06A9.88,9.88,0,0,1,30.58,14H38V34Z"/><rect class="cls-1" x="12" y="19" width="9.03" height="2"/><rect class="cls-1" x="12" y="23.01" width="9.03" height="2"/><rect class="cls-1" x="12" y="27.01" width="9.03" height="2"/><rect class="cls-1" x="27" y="19" width="9.03" height="2"/><rect class="cls-1" x="27" y="23.01" width="9.03" height="2"/><rect class="cls-1" x="27" y="27.01" width="9.03" height="2"/></svg>