<svg id="Lager_1" data-name="Lager 1" xmlns="http://www.w3.org/2000/svg" viewBox="0 0 24 24"><defs><style>.cls-1{fill:#1e3856;}</style></defs><path class="cls-1" d="M16,10.41h0a4,4,0,0,0-.51-1.58L12,3.83l-3.46,5a4.07,4.07,0,0,0-.52,1.6h0c-2.41.81-4,2.35-4,4.15a3,3,0,0,0,.13.88l1-.3a2,2,0,0,1-.09-.58c0-1.25,1.21-2.38,3-3.06h0a3.7,3.7,0,0,0,.28.93c-1.17.5-1.89,1.26-1.89,2.13,0,1.58,2.38,2.77,5.53,2.77,2.87,0,5.18-1,5.49-2.43l-1-.23c-.17.77-2,1.6-4.45,1.6-2.76,0-4.46-1-4.46-1.71,0-.39.5-.86,1.4-1.21H9A3.92,3.92,0,0,0,12,14.82,4,4,0,0,0,16,11.5h0c1.85.68,3.08,1.82,3.08,3.08,0,2-3.2,3.73-7,3.73a10.75,10.75,0,0,1-4.77-1,.61.61,0,0,0-.78.22l-.24.39a11.17,11.17,0,0,0,5.79,1.45c4.5,0,8-2.09,8-4.76C20.07,12.76,18.45,11.22,16,10.41ZM8,11H8Zm.6,1.95h0Zm6-.6a3,3,0,0,1-5.2-3L12,5.59l2.61,3.77A3,3,0,0,1,14.62,12.33ZM16,11h0Z"/></svg>