<svg id="Lager_1" data-name="Lager 1" xmlns="http://www.w3.org/2000/svg" viewBox="0 0 48 48"><defs><style>.cls-1{fill:#1e3856;}</style></defs><path class="cls-1" d="M33.37,30.37h0a5,5,0,1,0-4.67,0h0A8.06,8.06,0,0,0,24,34.16a8.06,8.06,0,0,0-4.64-3.79h0a5,5,0,1,0-4.67,0h0A8,8,0,0,0,9,38h.91a1.21,1.21,0,0,0,1.18-1A6,6,0,0,1,23,38h2a6,6,0,0,1,11.9-1,1.21,1.21,0,0,0,1.18,1H39A8,8,0,0,0,33.37,30.37ZM17,23a3,3,0,1,1-3,3A3,3,0,0,1,17,23Zm14,0a3,3,0,1,1-3,3A3,3,0,0,1,31,23Z"/><path class="cls-1" d="M24,22a5,5,0,1,0-5-5A5,5,0,0,0,24,22Zm0-8a3,3,0,1,1-3,3A3,3,0,0,1,24,14Z"/></svg>