<svg id="Lager_1" data-name="Lager 1" xmlns="http://www.w3.org/2000/svg" viewBox="0 0 36 36"><defs><style>.cls-1{fill:#fff;}</style></defs><path class="cls-1" d="M27,18h-1.5A7.5,7.5,0,0,1,18,25.5a7.79,7.79,0,0,1-1.53-.16l2.82-2.82-1.06-1.06-4.77,4.77L18.22,31l.42-.42a.88.88,0,0,0,0-1.27l-2.5-2.51A8.88,8.88,0,0,0,18,27,9,9,0,0,0,27,18Z"/><path class="cls-1" d="M19.52,10.67l-2.18,2.18a.91.91,0,0,0,0,1.28l.42.42,4.77-4.77L17.76,5,16.7,6.06l3.14,3.15A8.74,8.74,0,0,0,18,9a9,9,0,0,0-9,9h1.5A7.51,7.51,0,0,1,18,10.51,7.1,7.1,0,0,1,19.52,10.67Z"/></svg>