<?xml version="1.0" encoding="utf-8"?>
<!-- Generator: Adobe Illustrator 25.2.1, SVG Export Plug-In . SVG Version: 6.00 Build 0)  -->
<svg version="1.1" id="Lager_1" xmlns="http://www.w3.org/2000/svg" xmlns:xlink="http://www.w3.org/1999/xlink" x="0px" y="0px"
	 viewBox="0 0 36 36" style="enable-background:new 0 0 36 36;" xml:space="preserve">
<style type="text/css">
	.st0{fill:#FFFFFF;}
</style>
<g>
	<path class="st0" d="M28.51,17.33h-2.19v-6.69l-1.5-3.88H11.19l-1.5,3.88v6.69H7.55l-0.79,5.94v5.94h4.42v-1.49h3.85v1.49h5.92
		v-1.49h3.86v1.49h4.4v-5.94L28.51,17.33z M26.33,18.82h0.87l0.18,1.49h-1.04v-1.49H26.33z M26.33,21.79h1.22l0.18,1.49h-1.4V21.79z
		 M12.21,8.25h11.6l0.64,1.66H11.57L12.21,8.25z M11.18,11.39h13.67v2.97H11.18V11.39z M11.18,18.82v-1.49v-1.49h13.67v1.49v1.49
		l0,0H11.18L11.18,18.82z M11.18,21.79V20.3h13.67v1.49v1.49H11.18V21.79z M8.85,18.82h0.84v1.49H8.66L8.85,18.82z M8.46,21.79h1.23
		v1.49H8.26L8.46,21.79z M27.73,27.74H26.3v-0.01v-1.49h-1.49h-3.86h-1.49v1.49v0.01h-2.95v-0.01v-1.49h-1.49h-3.85H9.7v1.49v0.01
		H8.25v-2.97h19.49v2.97H27.73z"/>
</g>
</svg>
