<svg id="Lager_1" data-name="Lager 1" xmlns="http://www.w3.org/2000/svg" viewBox="0 0 24 24"><defs><style>.cls-1{fill:#1e3856;}</style></defs><path class="cls-1" d="M20,6.49H15.29a6,6,0,0,0-3.3,1,6.08,6.08,0,0,0-3.33-1H4v12H8.68a6,6,0,0,1,3.31,1,6,6,0,0,1,3.29-1H20Zm-11.32,11H5v-10H8.66a5.08,5.08,0,0,1,2.77.83l.06,0v9.71A6.92,6.92,0,0,0,8.68,17.49Zm6.6,0a6.92,6.92,0,0,0-2.77.59V8.37l.05,0a4.93,4.93,0,0,1,2.74-.83H19v10Z"/><rect class="cls-1" x="6" y="10" width="4.52" height="1"/><rect class="cls-1" x="6" y="12.01" width="4.52" height="1"/><rect class="cls-1" x="6" y="14" width="4.52" height="1"/><rect class="cls-1" x="13.5" y="10" width="4.52" height="1"/><rect class="cls-1" x="13.5" y="12.01" width="4.52" height="1"/><rect class="cls-1" x="13.5" y="14" width="4.52" height="1"/></svg>