<?xml version="1.0" encoding="utf-8"?>
<!-- Generator: Adobe Illustrator 25.2.1, SVG Export Plug-In . SVG Version: 6.00 Build 0)  -->
<svg version="1.1" id="Layer_1" xmlns="http://www.w3.org/2000/svg" xmlns:xlink="http://www.w3.org/1999/xlink" x="0px" y="0px"
	 viewBox="0 0 24 24" style="enable-background:new 0 0 24 24;" xml:space="preserve">
<style type="text/css">
	.st0{fill:#FFFFFF;}
</style>
<rect x="6.62" y="8.92" class="st0" width="2.26" height="1.07"/>
<rect x="6.63" y="11.41" class="st0" width="2.26" height="1.07"/>
<rect x="6.63" y="13.91" class="st0" width="2.26" height="1.07"/>
<rect x="6.63" y="16.4" class="st0" width="2.26" height="1.07"/>
<path class="st0" d="M19.64,18.49H19.5V6.59h-3.84V4.5H6.93v2.09H4.5v11.9H4.25c-0.33,0-0.6,0.27-0.6,0.6v0.4h16.59v-0.4
	C20.24,18.76,19.97,18.49,19.64,18.49z M18.51,18.49H5.49V7.58h2.43V5.49h6.75v1.1h-4.64v0.99h8.47v10.91H18.51z"/>
<path class="st0" d="M15.55,13.87c0.57-0.52,0.94-1.27,0.94-2.12c0-1.56-1.24-2.83-2.76-2.83s-2.76,1.27-2.76,2.83
	c0,0.84,0.36,1.6,0.94,2.12c-1.27,0.68-2.14,2.04-2.14,3.61h0.45h0.23c0.17,0,0.3-0.13,0.32-0.3l0,0c0.12-1.32,1.06-2.39,2.27-2.69
	c0.22-0.05,0.45-0.09,0.69-0.09s0.47,0.03,0.69,0.09c1.21,0.3,2.14,1.37,2.27,2.68v0.01c0.02,0.17,0.15,0.3,0.32,0.3h0.23h0.45
	C17.69,15.91,16.82,14.54,15.55,13.87z M13.73,13.58c-0.22,0-0.43-0.05-0.62-0.12c-0.67-0.26-1.15-0.93-1.15-1.71
	c0-1.01,0.79-1.83,1.77-1.83s1.77,0.82,1.77,1.83c0,0.78-0.48,1.45-1.15,1.71C14.15,13.54,13.95,13.58,13.73,13.58z"/>
</svg>
