<?xml version="1.0" encoding="utf-8"?>
<!-- Generator: Adobe Illustrator 25.2.1, SVG Export Plug-In . SVG Version: 6.00 Build 0)  -->
<svg version="1.1" id="Layer_1" xmlns="http://www.w3.org/2000/svg" xmlns:xlink="http://www.w3.org/1999/xlink" x="0px" y="0px"
	 viewBox="0 0 36 36" style="enable-background:new 0 0 36 36;" xml:space="preserve">
<style type="text/css">
	.st0{fill:#FFFFFF;}
</style>
<rect x="9.93" y="13.35" class="st0" width="3.39" height="1.61"/>
<rect x="9.94" y="17.08" class="st0" width="3.39" height="1.61"/>
<rect x="9.94" y="20.82" class="st0" width="3.39" height="1.61"/>
<rect x="9.94" y="24.56" class="st0" width="3.39" height="1.61"/>
<path class="st0" d="M29.46,27.7h-0.22V9.84h-5.75V6.71H10.4v3.14H6.75V27.7H6.38c-0.5,0-0.9,0.4-0.9,0.9v0.6h24.88v-0.6
	C30.36,28.1,29.96,27.7,29.46,27.7z M27.76,27.7H8.24V11.33h3.65V8.19h10.12v1.65h-6.96v1.49h12.71
	C27.76,11.33,27.76,27.7,27.76,27.7z"/>
<path class="st0" d="M23.33,20.76c0.86-0.78,1.41-1.91,1.41-3.17c0-2.34-1.86-4.24-4.15-4.24s-4.15,1.9-4.15,4.24
	c0,1.26,0.55,2.4,1.41,3.17c-1.9,1.02-3.21,3.06-3.21,5.41h0.68h0.35c0.25,0,0.46-0.2,0.48-0.45l0,0c0.19-1.97,1.58-3.58,3.41-4.03
	c0.33-0.08,0.67-0.13,1.03-0.13c0.35,0,0.7,0.05,1.03,0.13c1.82,0.45,3.21,2.05,3.41,4.01v0.02c0.02,0.26,0.23,0.45,0.48,0.45h0.35
	h0.68C26.54,23.82,25.23,21.78,23.33,20.76z M20.59,20.34c-0.33,0-0.64-0.07-0.93-0.18c-1-0.39-1.72-1.39-1.72-2.57
	c0-1.52,1.19-2.75,2.66-2.75s2.66,1.23,2.66,2.75c0,1.18-0.72,2.17-1.72,2.57C21.23,20.27,20.92,20.34,20.59,20.34z"/>
</svg>
