<svg id="Lager_1" data-name="Lager 1" xmlns="http://www.w3.org/2000/svg" viewBox="0 0 36 36"><defs><style>.cls-1{fill:#fff;}</style></defs><path class="cls-1" d="M30,9.23H22.94a9,9,0,0,0-5,1.5,9.13,9.13,0,0,0-5-1.49H6v18h7a9,9,0,0,1,5,1.5,8.89,8.89,0,0,1,4.94-1.5H30ZM13,25.74H7.55v-15H13A7.52,7.52,0,0,1,17.14,12l.1.06V26.64A10.56,10.56,0,0,0,13,25.74Zm9.91,0a10.35,10.35,0,0,0-4.15.89V12.05l.07,0a7.35,7.35,0,0,1,4.1-1.24h5.53v15Z"/><rect class="cls-1" x="9" y="14.5" width="6.77" height="1.5"/><rect class="cls-1" x="9" y="17.51" width="6.77" height="1.5"/><rect class="cls-1" x="9" y="20.51" width="6.77" height="1.5"/><rect class="cls-1" x="20.25" y="14.5" width="6.77" height="1.5"/><rect class="cls-1" x="20.25" y="17.51" width="6.77" height="1.5"/><rect class="cls-1" x="20.25" y="20.51" width="6.77" height="1.5"/></svg>