<svg id="Lager_1" data-name="Lager 1" xmlns="http://www.w3.org/2000/svg" viewBox="0 0 24 24"><defs><style>.cls-1{fill:#fff;}</style></defs><path class="cls-1" d="M19.75,12.82c0-1.23-1.67-2.2-3.75-2.2h-.12A3.75,3.75,0,0,0,9.61,7L4.37,12.2h0A3.76,3.76,0,0,0,7,18.62a3.68,3.68,0,0,0,2.27-.77,4.47,4.47,0,0,0,.4-.34l2.57-2.57v.93c0,1.26,1.65,2.25,3.75,2.25s3.76-1,3.76-2.25v-3ZM16,11.62c1.58,0,2.76.66,2.76,1.25S17.58,14.12,16,14.12a4.06,4.06,0,0,1-2.31-.62l1.23-1.23a3.54,3.54,0,0,0,.49-.61A5.65,5.65,0,0,1,16,11.62ZM10.32,7.67a2.76,2.76,0,0,1,3.89,0,2.65,2.65,0,0,1,.45.62l-2.37,2.38.71.71,2-2a2.7,2.7,0,0,1-.78,2.18L10.76,15v-.15a3.78,3.78,0,0,0-1.09-2.66,4.26,4.26,0,0,0-.58-.47l2.17-2.17-.7-.71L8.13,11.29a3.9,3.9,0,0,0-1.27-.17ZM5.08,16.8A2.74,2.74,0,0,1,7,12.12a2.77,2.77,0,0,1,2,.8,2.76,2.76,0,0,1,0,3.89c-.08.08-.17.14-.25.21A2.75,2.75,0,0,1,5.08,16.8ZM16,17.12c-1.57,0-2.75-.66-2.75-1.25V14.4a4.64,4.64,0,0,0,2,.67v1.54h1v-1.5a5.13,5.13,0,0,0,2.51-.7v1.46C18.76,16.46,17.58,17.12,16,17.12Z"/><path class="cls-1" d="M5.77,13.62a1.77,1.77,0,0,0,0,2.49A1.75,1.75,0,0,0,7,16.62a1.76,1.76,0,0,0,1.25-3A1.81,1.81,0,0,0,5.77,13.62ZM7.55,15.4a.76.76,0,1,1,0-1.07A.77.77,0,0,1,7.55,15.4Z"/><path class="cls-1" d="M14.76,12.86c0,.31.55.57,1.24.57s1.25-.26,1.25-.57-.56-.56-1.25-.56S14.76,12.55,14.76,12.86Z"/></svg>