<svg id="Lager_1" data-name="Lager 1" xmlns="http://www.w3.org/2000/svg" viewBox="0 0 36 36"><defs><style>.cls-1{fill:#fff;}</style></defs><circle class="cls-1" cx="9.24" cy="24.98" r="1.11"/><path class="cls-1" d="M28.92,26.1h2.44V11.87H14.88v9.76h-1.5V11.87H9.14a.89.89,0,0,0-.65.27L4.37,16.38v5.28a.9.9,0,0,0-.75.87v3.59H6.08A3.37,3.37,0,0,0,7.14,27.6H5.27a.9.9,0,0,0-.9.9v.6H30.61v-.6a.9.9,0,0,0-.9-.9H27.85A3.25,3.25,0,0,0,28.92,26.1Zm1-1.47H29.1a3.31,3.31,0,0,0-.54-1.52h1.32ZM23,23.11a3.32,3.32,0,0,0-.55,1.52H12.58A3.31,3.31,0,0,0,12,23.11ZM5.87,17l2.27-2.34v3.22H5.87Zm0,7.64H5.1V23.11H6.43A3.42,3.42,0,0,0,5.89,24.63Zm0-3V19.37H9.63v-6h2.24v8.25ZM9.24,27a2,2,0,1,1,2-2A2,2,0,0,1,9.24,27Zm2.09.59a3.25,3.25,0,0,0,1.07-1.5H22.59a3.32,3.32,0,0,0,1.07,1.5ZM25.76,27a2,2,0,1,1,2-2A2,2,0,0,1,25.76,27Zm-9.38-5.39V13.37H29.86v8.25Z"/><circle class="cls-1" cx="25.76" cy="24.98" r="1.11"/></svg>