<svg id="Lager_1" data-name="Lager 1" xmlns="http://www.w3.org/2000/svg" viewBox="0 0 48 48"><defs><style>.cls-1{fill:#1e3856;}</style></defs><path class="cls-1" d="M32.44,9A9.45,9.45,0,0,0,23,17.64,9.42,9.42,0,0,0,15.58,14H12v3.56A9.45,9.45,0,0,0,21.47,27H23V37H17.17a1.2,1.2,0,0,0-1.2,1.2V39H32v-.8a1.2,1.2,0,0,0-1.2-1.2H25V27h0V23.44c0-.19,0-.37,0-.55V22h1.56A9.45,9.45,0,0,0,36,12.58V9Zm-11,16A7.46,7.46,0,0,1,14,17.55V16h1.56A7.44,7.44,0,0,1,23,22.9V25ZM34,12.58A7.45,7.45,0,0,1,26.56,20H25V18.46A7.45,7.45,0,0,1,32.44,11H34Z"/></svg>