<svg id="Lager_1" data-name="Lager 1" xmlns="http://www.w3.org/2000/svg" viewBox="0 0 24 24"><defs><style>.cls-1{fill:#fff;}</style></defs><path class="cls-1" d="M16.22,4.51a4.73,4.73,0,0,0-4.7,4.31A4.73,4.73,0,0,0,7.8,7H6V8.78a4.73,4.73,0,0,0,4.73,4.73h.77v5H8.59a.6.6,0,0,0-.6.6v.4h8v-.4a.6.6,0,0,0-.6-.6h-2.9v-5h0V11.72c0-.09,0-.18,0-.27V11h.77A4.72,4.72,0,0,0,18,6.3V4.51Zm-5.48,8A3.74,3.74,0,0,1,7,8.78V8H7.8a3.73,3.73,0,0,1,3.71,3.45v1.06ZM17,6.3A3.73,3.73,0,0,1,13.28,10H12.5V9.24a3.73,3.73,0,0,1,3.72-3.73H17Z"/></svg>