<?xml version="1.0" encoding="utf-8"?>
<!-- Generator: Adobe Illustrator 25.1.0, SVG Export Plug-In . SVG Version: 6.00 Build 0)  -->
<svg version="1.1" id="Lager_1" xmlns="http://www.w3.org/2000/svg" xmlns:xlink="http://www.w3.org/1999/xlink" x="0px" y="0px"
	 viewBox="0 0 36 36" style="enable-background:new 0 0 36 36;" xml:space="preserve">
<style type="text/css">
	.st0{fill:#FFFFFF;}
</style>
<g>
	<path class="st0" d="M13.5,22.6H6.1c-0.5,0-0.9,0.4-0.9,0.9v0.6h8.3V22.6z"/>
	<path class="st0" d="M7.5,26.5v0.6h8.3v-1.5H8.4C7.9,25.6,7.5,26,7.5,26.5z"/>
	<path class="st0" d="M26.9,15.9L26.9,15.9c-0.3-3.4-3.2-6-6.7-6c-2.6,0-4.9,1.5-6.1,3.8c-3.2-0.4-5.9,2.1-5.9,5.2
		c0,0.8,0.2,1.6,0.5,2.2h1.8c-0.5-0.6-0.8-1.4-0.8-2.2c0-2.4,2.2-4.3,4.7-3.6l0.7,0.2l0.2-0.6c0.8-2,2.7-3.4,4.9-3.4
		c2.7,0,4.9,2.1,5.2,4.7c-1.7,0.5-3,2.1-3,4H24c0-1.4,1.2-2.6,2.6-2.6s2.6,1.2,2.6,2.6s-1.2,2.6-2.6,2.6H15v1.5h11.6
		c2.3,0,4.1-1.8,4.1-4.1C30.7,17.8,29.1,16.1,26.9,15.9z"/>
</g>
</svg>
