<svg id="Lager_1" data-name="Lager 1" xmlns="http://www.w3.org/2000/svg" viewBox="0 0 72 72"><defs><style>.cls-1{fill:#fff;}</style></defs><path class="cls-1" d="M60,18H45.87A17.9,17.9,0,0,0,36,21a18.27,18.27,0,0,0-10-3H12L12,54.1H26a18,18,0,0,1,9.94,3,17.72,17.72,0,0,1,9.87-3H60ZM26,51H15.09V21.09H26a15.11,15.11,0,0,1,8.32,2.49l.19.12V52.83A21.08,21.08,0,0,0,26,51Zm19.82,0a20.56,20.56,0,0,0-8.31,1.77V23.66l.14-.09a14.71,14.71,0,0,1,8.21-2.49h11V51Z"/><rect class="cls-1" x="17.99" y="28.56" width="13.55" height="3"/><rect class="cls-1" x="17.99" y="34.57" width="13.55" height="3"/><rect class="cls-1" x="17.99" y="40.57" width="13.55" height="3"/><rect class="cls-1" x="40.49" y="28.56" width="13.55" height="3"/><rect class="cls-1" x="40.49" y="34.57" width="13.55" height="3"/><rect class="cls-1" x="40.49" y="40.57" width="13.55" height="3"/></svg>