<svg id="Lager_1" data-name="Lager 1" xmlns="http://www.w3.org/2000/svg" viewBox="0 0 24 24"><defs><style>.cls-1{fill:#1e3856;}</style></defs><path class="cls-1" d="M16.68,15.68h0a2.49,2.49,0,1,0-2.34,0h0A4.05,4.05,0,0,0,12,17.58a4,4,0,0,0-2.32-1.9h0a2.49,2.49,0,1,0-2.34,0h0A4,4,0,0,0,4.5,19.5H5A.61.61,0,0,0,5.55,19a3,3,0,0,1,6,.51h1a3,3,0,0,1,6-.51.6.6,0,0,0,.59.51h.45A4,4,0,0,0,16.68,15.68ZM8.5,12A1.5,1.5,0,1,1,7,13.5,1.5,1.5,0,0,1,8.5,12Zm7,0A1.5,1.5,0,1,1,14,13.5,1.5,1.5,0,0,1,15.49,12Z"/><path class="cls-1" d="M12,11.49A2.49,2.49,0,1,0,9.51,9,2.49,2.49,0,0,0,12,11.49Zm0-4A1.5,1.5,0,1,1,10.5,9,1.51,1.51,0,0,1,12,7.5Z"/></svg>