<?xml version="1.0" encoding="utf-8"?>
<!-- Generator: Adobe Illustrator 25.2.1, SVG Export Plug-In . SVG Version: 6.00 Build 0)  -->
<svg version="1.1" id="Lager_1" xmlns="http://www.w3.org/2000/svg" xmlns:xlink="http://www.w3.org/1999/xlink" x="0px" y="0px"
	 viewBox="0 0 48 48" style="enable-background:new 0 0 48 48;" xml:space="preserve">
<style type="text/css">
	.st0{fill:#FFFFFF;}
</style>
<g>
	<path class="st0" d="M38.05,23.11h-2.92v-8.94l-2-5.18H14.92l-2,5.18v8.94h-2.85L9,31.05v7.94h5.91V37h5.14v1.99h7.91V37h5.16v1.99
		H39v-7.94L38.05,23.11z M35.13,25.09h1.16l0.24,1.98h-1.39v-1.98H35.13z M35.13,29.06h1.63L37,31.05h-1.86L35.13,29.06L35.13,29.06
		z M16.28,10.98h15.5l0.85,2.21h-17.2L16.28,10.98z M14.9,15.17h18.25v3.97H14.9V15.17z M14.9,25.09v-1.98v-1.98h18.25v1.98v1.98
		l0,0H14.9L14.9,25.09z M14.9,29.06v-1.98h18.25v1.98v1.98H14.9V29.06z M11.8,25.09h1.12v1.98h-1.38L11.8,25.09z M11.27,29.06h1.65
		v1.98H11L11.27,29.06z M37.01,37H35.1v-0.01v-1.98h-1.98h-5.16h-1.98v1.98V37h-3.94v-0.01v-1.98h-1.98h-5.14h-1.98v1.98V37H11
		v-3.97h26.02V37H37.01z"/>
</g>
</svg>
