<svg id="Lager_1" data-name="Lager 1" xmlns="http://www.w3.org/2000/svg" viewBox="0 0 48 48"><defs><style>.cls-1{fill:#1e3856;}</style></defs><circle class="cls-1" cx="12.48" cy="32.48" r="1.49"/><path class="cls-1" d="M38.73,34H42V15H20V28H18V15H12.35a1.22,1.22,0,0,0-.86.36L6,21v7a1.18,1.18,0,0,0-1,1.16V34H8.28a4.6,4.6,0,0,0,1.41,2H7.19A1.2,1.2,0,0,0,6,37.18V38H41v-.8a1.19,1.19,0,0,0-1.2-1.2H37.31A4.54,4.54,0,0,0,38.73,34ZM40,32H39a4.54,4.54,0,0,0-.72-2H40Zm-9.23-2a4.43,4.43,0,0,0-.73,2H17a4.43,4.43,0,0,0-.73-2ZM8,21.82l3-3.11V23H8ZM8,32H7V30H8.75A4.43,4.43,0,0,0,8,32Zm0-4V25h5l0-8h3V28Zm4.49,7.18a2.7,2.7,0,1,1,2.7-2.7A2.71,2.71,0,0,1,12.48,35.18Zm2.8.8a4.56,4.56,0,0,0,1.43-2H30.29a4.49,4.49,0,0,0,1.43,2Zm19.23-.8a2.7,2.7,0,1,1,2.7-2.7A2.7,2.7,0,0,1,34.51,35.18ZM22,28V17H40V28Z"/><circle class="cls-1" cx="34.51" cy="32.48" r="1.49"/></svg>