<svg id="Lager_1" data-name="Lager 1" xmlns="http://www.w3.org/2000/svg" viewBox="0 0 36 36"><defs><style>.cls-1{fill:#fff;}</style></defs><path class="cls-1" d="M24.33,6.76a7.08,7.08,0,0,0-7,6.47,7.1,7.1,0,0,0-5.59-2.74H9v2.68a7.08,7.08,0,0,0,7.08,7.08h1.16v7.51H12.88a.9.9,0,0,0-.9.9v.6H24v-.6a.9.9,0,0,0-.9-.9H18.76V20.25h0V17.58c0-.14,0-.27,0-.41v-.65h1.16A7.09,7.09,0,0,0,27,9.44V6.76Zm-8.23,12a5.58,5.58,0,0,1-5.58-5.58V12h1.17a5.6,5.6,0,0,1,5.57,5.18v1.58Zm9.41-9.31A5.59,5.59,0,0,1,19.92,15H18.75V13.85a5.59,5.59,0,0,1,5.58-5.59h1.18Z"/></svg>